<svg preserveAspectRatio="none" width="100%" height="100%" overflow="visible" style="display: block;" viewBox="0 0 16 16" fill="none" xmlns="http://www.w3.org/2000/svg">
<g id="language2">
<path id="Union" fill-rule="evenodd" clip-rule="evenodd" d="M13 3H3L3 13H13V3ZM3 2C2.44772 2 2 2.44772 2 3V13C2 13.5523 2.44772 14 3 14H13C13.5523 14 14 13.5523 14 13V3C14 2.44772 13.5523 2 13 2H3ZM7.03602 5.19495H4.13802C4.04802 5.19495 4.01202 5.22195 4.01202 5.32095V10.8739C4.01202 10.9729 4.04802 10.9999 4.13802 10.9999H7.17102C7.23402 10.9999 7.26102 10.9819 7.26102 10.9099V10.4419C7.26102 10.3519 7.23402 10.3339 7.17102 10.3339H4.77702V8.37195H6.68502C6.74802 8.37195 6.76602 8.35395 6.76602 8.28195V7.80495C6.76602 7.72395 6.74802 7.70595 6.68502 7.70595H4.77702V5.86095H7.03602C7.09902 5.86095 7.12602 5.84295 7.12602 5.77995V5.29395C7.12602 5.21295 7.09902 5.19495 7.03602 5.19495ZM10.9153 9.06495L8.85431 5.32095C8.80931 5.23095 8.74631 5.19495 8.67431 5.19495H8.25131C8.1613 5.19495 8.12531 5.22195 8.12531 5.32095V10.8739C8.12531 10.9729 8.1613 10.9999 8.25131 10.9999H8.71931C8.78231 10.9999 8.83631 10.9729 8.83631 10.8739V6.66195C8.87231 6.85995 8.93531 7.02195 9.04331 7.23795L11.0953 10.8739C11.1493 10.9639 11.1943 10.9999 11.2753 10.9999H11.7253C11.7883 10.9999 11.8423 10.9729 11.8423 10.8739V5.32095C11.8423 5.22195 11.7883 5.19495 11.7253 5.19495H11.2483C11.1673 5.19495 11.1313 5.22195 11.1313 5.32095V9.63195C11.0953 9.43395 11.0323 9.28095 10.9153 9.06495Z" fill="var(--fill-0, black)"/>
</g>
</svg>
