<svg preserveAspectRatio="none" width="100%" height="100%" overflow="visible" style="display: block;" viewBox="0 0 16 16" fill="none" xmlns="http://www.w3.org/2000/svg">
<g id="user">
<path id="Union" fill-rule="evenodd" clip-rule="evenodd" d="M8 2.59937C6.81663 2.59937 5.875 3.53644 5.875 4.67079C5.875 5.80514 6.81663 6.74222 8 6.74222C9.18337 6.74222 10.125 5.80514 10.125 4.67079C10.125 3.53644 9.18337 2.59937 8 2.59937ZM4.875 4.67079C4.875 2.96482 6.28388 1.59937 8 1.59937C9.71612 1.59937 11.125 2.96482 11.125 4.67079C11.125 6.37677 9.71612 7.74222 8 7.74222C6.28388 7.74222 4.875 6.37677 4.875 4.67079ZM5.375 10.1071C4.19163 10.1071 3.25 11.0442 3.25 12.1785V13.5H12.75V12.1785C12.75 11.0442 11.8084 10.1071 10.625 10.1071H5.375ZM2.25 12.1785C2.25 10.4726 3.65888 9.10712 5.375 9.10712H10.625C12.3411 9.10712 13.75 10.4726 13.75 12.1785V14C13.75 14.2761 13.5261 14.5 13.25 14.5H2.75C2.47386 14.5 2.25 14.2761 2.25 14V12.1785Z" fill="var(--fill-0, #141414)"/>
</g>
</svg>
