<svg width="200" height="200" viewBox="0 0 200 200" fill="none" xmlns="http://www.w3.org/2000/svg">
<g id="Overview">
<g id="Navigation">
<g id="Frame 3239">
<g id="&#231;&#169;&#186;&#231;&#138;&#182;&#230;&#128;&#129;-light">
<path id="Vector" d="M168.53 156.411V152.207H172.597V156.411H176.92V160.437H172.597V164.929H168.53V160.437H164.198V156.411H168.53Z" fill="#1450F5"/>
<path id="Vector (Stroke)" d="M173.097 151.707V155.911H177.42V160.937H173.097V165.428H168.03V160.937H163.698V155.911H168.03V151.707H173.097ZM169.03 156.911H164.698V159.937H169.03V164.428H172.097V159.937H176.42V156.911H172.097V152.707H169.03V156.911Z" fill="black"/>
<path id="Vector_2" d="M28.8291 149.001C31.8888 149.001 34.3691 146.521 34.3691 143.461C34.3691 140.401 31.8888 137.921 28.8291 137.921C25.7694 137.921 23.2891 140.401 23.2891 143.461C23.2891 146.521 25.7694 149.001 28.8291 149.001Z" fill="#FFE141"/>
<path id="Vector (Stroke)_2" d="M33.8691 143.461C33.8691 140.678 31.6126 138.421 28.8291 138.421C26.0456 138.421 23.7891 140.678 23.7891 143.461C23.7891 146.245 26.0456 148.501 28.8291 148.501C31.6126 148.501 33.8691 146.245 33.8691 143.461ZM34.8691 143.461C34.8691 146.797 32.1649 149.501 28.8291 149.501C25.4933 149.501 22.7891 146.797 22.7891 143.461C22.7891 140.125 25.4933 137.421 28.8291 137.421C32.1649 137.421 34.8691 140.125 34.8691 143.461Z" fill="black"/>
<path id="Vector_3" d="M154.85 100.245C156.86 100.245 158.489 98.6153 158.489 96.6056C158.489 94.5958 156.86 92.9666 154.85 92.9666C152.84 92.9666 151.211 94.5958 151.211 96.6056C151.211 98.6153 152.84 100.245 154.85 100.245Z" fill="#FFE141"/>
<path id="Vector (Stroke)_3" d="M157.822 96.6052C157.822 94.9638 156.491 93.6335 154.85 93.6335C153.208 93.6337 151.878 94.9639 151.878 96.6052C151.878 98.2467 153.208 99.5777 154.85 99.5779C156.491 99.5779 157.822 98.2468 157.822 96.6052ZM159.155 96.6052C159.155 98.9832 157.228 100.911 154.85 100.911C152.472 100.911 150.544 98.9831 150.544 96.6052C150.544 94.2275 152.472 92.2997 154.85 92.2996C157.227 92.2996 159.155 94.2274 159.155 96.6052Z" fill="black"/>
<path id="Vector_4" d="M52.5716 66.0788C54.5814 66.0788 56.2106 64.4496 56.2106 62.4398C56.2106 60.43 54.5814 58.8008 52.5716 58.8008C50.5619 58.8008 48.9326 60.43 48.9326 62.4398C48.9326 64.4496 50.5619 66.0788 52.5716 66.0788Z" fill="#1450F5"/>
<path id="Vector (Stroke)_4" d="M55.7109 62.4395C55.7108 60.706 54.3048 59.3008 52.5713 59.3008C50.8379 59.301 49.4328 60.7061 49.4326 62.4395C49.4326 64.173 50.8378 65.5789 52.5713 65.5791C54.3049 65.5791 55.7109 64.1731 55.7109 62.4395ZM56.7109 62.4395C56.7109 64.7254 54.8572 66.5791 52.5713 66.5791C50.2855 66.5789 48.4326 64.7253 48.4326 62.4395C48.4328 60.1538 50.2856 58.301 52.5713 58.3008C54.8571 58.3008 56.7108 60.1537 56.7109 62.4395Z" fill="black"/>
<path id="Vector (Stroke)_5" d="M91.7764 70.4844L133.065 88.7041L92.7305 112.123L92.6572 112.165L52.2549 88.707L91.6562 70.4854L91.7158 70.457L91.7764 70.4844ZM52.8857 88.7363L92.6572 111.828L132.424 88.7393L91.7178 70.7764L52.8857 88.7363Z" fill="black"/>
<path id="Vector (Stroke)_6" d="M52.8213 88.2893L92.9082 111.565L93.3721 111.833L81.4033 129.529L81.1338 129.928L80.7256 129.673L41.3828 105.19L52.1494 88.4514L52.4082 88.05L52.8213 88.2893ZM42.7734 104.876L80.8447 128.57L91.9434 112.159L52.7314 89.3938L42.7734 104.876Z" fill="black"/>
<path id="Vector (Stroke)_7" d="M143.638 105.823L143.209 106.082L103.989 129.677L103.573 129.928L91.9541 111.827L132.919 88.0422L143.638 105.823ZM93.3594 112.166L103.89 128.57L142.265 105.482L132.57 89.4006L93.3594 112.166Z" fill="black"/>
<path id="Vector (Stroke)_8" d="M76.2285 67.4119L93.3799 70.3992L52.5967 89.2605L52.4062 89.1941L37.9951 84.1863L75.9404 67.447L76.0791 67.3855L76.2285 67.4119ZM40.7227 84.0759L52.543 88.1833L90.0547 70.8347L76.2051 68.4216L40.7227 84.0759Z" fill="black"/>
<path id="Vector (Stroke)_9" d="M106.903 68.7947L147.88 86.1951L132.688 89.2429L132.544 89.1794L89.7471 70.2937L106.662 68.7566L106.787 68.7449L106.903 68.7947ZM93.6875 70.9392L132.802 88.2L144.511 85.8503L106.628 69.7634L93.6875 70.9392Z" fill="black"/>
<path id="Vector (Stroke)_10" d="M93.1777 112.877L51.4883 88.6719L92.2002 69.8428L93.1777 112.877ZM53.6514 88.7725L92.1377 111.116L91.2344 71.3906L53.6514 88.7725Z" fill="black"/>
<path id="Vector_5" d="M91.7178 70.6172L92.6581 111.997L132.745 88.722L91.7178 70.6172Z" fill="#231815"/>
<path id="Vector (Stroke)_11" d="M133.846 88.6611L92.1777 112.854L91.2002 69.8418L133.846 88.6611ZM93.1387 111.139L131.645 88.7822L92.2354 71.3916L93.1387 111.139Z" fill="black"/>
<path id="Vector_6" d="M80.9895 129.249L52.5703 111.563V135.479L92.6576 158.375V111.997L80.9895 129.249Z" fill="#1450F5"/>
<path id="Vector (Stroke)_12" d="M93.1572 159.237L52.3223 135.913L52.0703 135.769V110.663L80.8447 128.569L93.1572 110.365V159.237ZM53.0703 135.188L92.1572 157.513V113.63L81.1338 129.927L53.0703 112.464V135.188Z" fill="black"/>
<path id="Vector (Stroke)_13" d="M103.89 128.57L133.244 110.908V135.473L132.995 135.617L92.1572 159.242V110.292L103.89 128.57ZM103.989 129.677L103.573 129.928L93.1572 113.701V157.508L132.244 134.897V112.677L103.989 129.677Z" fill="black"/>
<path id="Vector (Stroke)_14" d="M89.5479 87.7506L90.0039 87.9547C89.6926 88.6492 89.415 89.2918 89.1709 89.8708L88.71 89.6764L88.249 89.4831C88.4959 88.8975 88.7772 88.2474 89.0918 87.5456L89.5479 87.7506ZM93.3164 80.2438L93.7529 80.4889C93.0373 81.766 92.3827 83.008 91.793 84.1842L90.8994 83.736C91.4953 82.5475 92.156 81.2914 92.8799 79.9997L93.3164 80.2438ZM97.8066 73.1442L98.2129 73.4362C97.3911 74.5799 96.6148 75.742 95.8848 76.9001L95.0391 76.3668C95.7786 75.1937 96.5658 74.0148 97.4004 72.8532L97.8066 73.1442ZM103.563 67.0739C102.589 68.0443 101.654 69.0735 100.762 70.1413L99.9941 69.5006C100.904 68.412 101.86 67.3594 102.858 66.3649L103.563 67.0739ZM118.869 65.1002C119.253 65.5262 119.716 65.8676 120.266 66.11C120.752 66.3246 121.197 66.4429 121.601 66.487L121.547 66.984L121.492 67.4811C120.975 67.4246 120.431 67.2758 119.862 67.0251C119.18 66.7243 118.602 66.2978 118.126 65.7692L118.869 65.1002ZM125.729 63.2868L126.223 63.3727C126.033 64.4673 125.531 65.5721 124.721 66.3678L124.37 66.0114L124.021 65.654C124.654 65.0317 125.076 64.1311 125.237 63.2018L125.729 63.2868ZM110.073 62.0104C108.895 62.6786 107.757 63.4556 106.659 64.319L106.35 63.9254L106.04 63.5329C107.173 62.642 108.353 61.836 109.58 61.1403L110.073 62.0104ZM117.079 58.0192L117.573 58.0954C117.553 58.2252 117.535 58.3546 117.519 58.4831C117.578 58.4765 117.638 58.4695 117.698 58.4635L117.748 58.9606L117.797 59.4586C117.672 59.4711 117.547 59.4855 117.422 59.5006C117.372 60.3233 117.397 61.1058 117.499 61.8288L116.509 61.9694C116.405 61.2366 116.376 60.4587 116.413 59.653C115.529 59.8127 114.661 60.038 113.812 60.3239L113.651 59.8502L113.492 59.3766C114.469 59.048 115.47 58.7939 116.495 58.6237C116.521 58.3986 116.55 58.1719 116.585 57.944L117.079 58.0192ZM122.006 58.5465C122.705 58.6418 123.412 58.777 124.127 58.9557L124.368 59.028C124.914 59.2201 125.343 59.5735 125.655 60.0221L124.834 60.5934C124.632 60.3024 124.367 60.0875 124.032 59.9704L123.884 59.9264C123.204 59.7564 122.533 59.627 121.871 59.5368L122.006 58.5465ZM120.128 50.9752C119.489 52.0908 118.951 53.2563 118.526 54.4264L117.587 54.0846C118.031 52.8609 118.592 51.6429 119.26 50.4772L120.128 50.9752ZM124.95 44.6901L125.253 45.0885C124.801 45.4327 124.379 45.7823 123.987 46.1344L123.604 46.4879C123.15 46.919 122.716 47.3788 122.304 47.8629L121.543 47.2155C121.977 46.7057 122.435 46.2191 122.916 45.7624L123.318 45.3913C123.731 45.0205 124.174 44.6533 124.647 44.2926L124.95 44.6901ZM132.969 41.1344C131.489 41.6227 130.147 42.185 128.938 42.7965L128.487 41.904C129.742 41.2693 131.13 40.6887 132.656 40.1852L132.969 41.1344ZM141.545 39.4186C140.005 39.5576 138.558 39.7669 137.201 40.0338L137.008 39.0524C138.4 38.7785 139.882 38.5646 141.455 38.4225L141.545 39.4186ZM145.93 38.2213C146.659 38.2196 147.406 38.2326 148.169 38.2604L148.151 38.7594L148.133 39.2594C147.382 39.2321 146.649 39.2197 145.933 39.2213L145.931 38.7213L145.93 38.2213Z" fill="black"/>
<path id="Vector_7" d="M158.573 35.7786H158.361C157.557 35.7786 156.905 36.4303 156.905 37.2342V40.2094C156.905 41.0133 157.557 41.665 158.361 41.665H158.573C159.377 41.665 160.029 41.0133 160.029 40.2094V37.2342C160.029 36.4303 159.377 35.7786 158.573 35.7786Z" fill="#231815"/>
<path id="Vector (Stroke)_15" d="M159.529 37.2346C159.529 36.7069 159.101 36.2786 158.573 36.2786H158.361C157.834 36.2786 157.405 36.7069 157.405 37.2346V40.2092C157.405 40.737 157.834 41.1653 158.361 41.1653H158.573C159.101 41.1653 159.529 40.737 159.529 40.2092V37.2346ZM160.529 40.2092C160.529 41.2893 159.653 42.1653 158.573 42.1653H158.361C157.281 42.1653 156.405 41.2893 156.405 40.2092V37.2346C156.405 36.1546 157.281 35.2786 158.361 35.2786H158.573C159.653 35.2786 160.529 36.1546 160.529 37.2346V40.2092Z" fill="black"/>
<path id="Vector_8" d="M155.764 41.6943L153.939 42.3493C153.069 42.5851 152.798 41.8369 152.798 41.2081V36.3784C152.798 35.7467 153.13 35.1382 153.939 35.2372L156.219 35.9504C156.655 36.0523 156.908 36.3202 156.908 36.9519V40.5531C156.908 41.1644 156.291 41.441 155.767 41.6943H155.764Z" fill="#1450F5"/>
<path id="Vector (Stroke)_16" d="M152.298 36.3779C152.298 35.9867 152.399 35.5484 152.683 35.2119C152.949 34.8954 153.334 34.7199 153.797 34.7265L154 34.7411L154.045 34.746L154.088 34.7597L156.368 35.4736H156.367C156.648 35.5447 156.927 35.6826 157.129 35.954C157.334 36.2301 157.408 36.5755 157.408 36.9521V40.5527C157.408 41.0587 157.142 41.4111 156.849 41.6474C156.574 41.8687 156.228 42.0274 155.985 42.1445L155.882 42.1943H155.852L154.108 42.8202L154.069 42.832C153.781 42.91 153.501 42.9177 153.242 42.8359C152.981 42.7531 152.783 42.5917 152.642 42.4023C152.373 42.0426 152.298 41.5722 152.298 41.2079V36.3779ZM153.298 41.2079C153.298 41.4725 153.358 41.691 153.442 41.8036C153.477 41.8503 153.511 41.8709 153.545 41.8818C153.582 41.8933 153.659 41.9045 153.801 41.8671L155.578 41.2294C155.846 41.0998 156.061 40.9975 156.221 40.8691C156.367 40.7509 156.408 40.658 156.408 40.5527V36.9521C156.408 36.6973 156.357 36.5921 156.326 36.5507C156.301 36.5163 156.249 36.4711 156.104 36.4374L156.087 36.4335L156.069 36.4277L153.84 35.7304C153.611 35.7112 153.508 35.7835 153.447 35.8554C153.363 35.9561 153.298 36.1377 153.298 36.3779V41.2079Z" fill="black"/>
<path id="Vector_9" d="M161.231 41.7177L162.876 42.3087C163.807 42.5736 164.198 41.9419 164.198 41.2315V36.4018C164.198 35.7701 163.866 35.1617 163.056 35.2606L160.777 35.9739C160.34 36.0758 160.087 36.3436 160.087 36.9753V40.5765C160.087 41.1879 160.704 41.4644 161.228 41.7177H161.231Z" fill="#1450F5"/>
<path id="Vector (Stroke)_17" d="M163.697 36.4014C163.697 36.1612 163.633 35.9796 163.548 35.8789C163.487 35.8072 163.384 35.734 163.156 35.7529L160.926 36.4512L160.908 36.4571L160.891 36.461C160.746 36.4946 160.696 36.5398 160.67 36.5742C160.639 36.6155 160.587 36.7205 160.587 36.9756V40.5762C160.587 40.6815 160.628 40.7744 160.774 40.8926C160.933 41.0204 161.147 41.1223 161.413 41.251L163.026 41.8311C163.354 41.9209 163.479 41.8365 163.533 41.7822C163.619 41.6969 163.697 41.5123 163.697 41.2315V36.4014ZM164.697 41.2315C164.697 41.6608 164.582 42.1474 164.239 42.4893C163.867 42.8614 163.333 42.9589 162.739 42.7901L162.723 42.7852L162.707 42.7793L161.144 42.2178H161.113L161.011 42.168C160.769 42.051 160.422 41.8922 160.147 41.6709C159.854 41.4347 159.587 41.0823 159.587 40.5762V36.9756C159.587 36.599 159.662 36.2536 159.867 35.9776C160.069 35.7064 160.348 35.5682 160.628 35.4971L162.907 34.7832L162.95 34.7696L162.996 34.7647C163.55 34.6971 164.008 34.8739 164.312 35.2354C164.596 35.5719 164.697 36.0102 164.697 36.4014V41.2315Z" fill="black"/>
</g>
</g>
</g>
</g>
</svg>
