<svg preserveAspectRatio="none" width="100%" height="100%" overflow="visible" style="display: block;" viewBox="0 0 16 16" fill="none" xmlns="http://www.w3.org/2000/svg">
<g id="show">
<path id="Union" d="M14.0354 7.21533C13.6214 6.51133 11.3861 3 8.04406 3C4.70939 3 2.50206 6.50467 2.09406 7.20667C1.95473 7.44467 1.97139 7.74467 2.13606 7.97067L3.21273 9.428C4.26273 10.6267 5.95606 12.0547 8.06206 12.0547C11.3201 12.0547 13.6034 8.62133 14.0274 7.932C14.1641 7.71067 14.1661 7.43533 14.0354 7.21533ZM8.06273 11.0547C6.33139 11.0547 4.87873 9.812 3.99139 8.80133L3.06073 7.53867C3.60339 6.65933 5.45873 3.99933 8.04406 3.99933C10.6514 3.99933 12.5354 6.69133 13.0781 7.56333C12.5234 8.41667 10.6041 11.0547 8.06273 11.0547ZM10.0834 7.52733C10.0834 8.632 9.18806 9.52733 8.08339 9.52733C6.97873 9.52733 6.08339 8.632 6.08339 7.52733C6.08339 6.42267 6.97873 5.52733 8.08339 5.52733C9.18806 5.52733 10.0834 6.42267 10.0834 7.52733Z" fill="var(--fill-0, #141414)"/>
</g>
</svg>
